<?xml version="1.0" encoding="UTF-8"?>
<svg id="Layer_1" xmlns="http://www.w3.org/2000/svg" version="1.1" xmlns:xlink="http://www.w3.org/1999/xlink" viewBox="0 0 82.06 82.06">
  <!-- Generator: Adobe Illustrator 29.5.0, SVG Export Plug-In . SVG Version: 2.1.0 Build 137)  -->
  <defs>
    <style>
      .st0 {
        fill: url(#linear-gradient1);
      }

      .st1 {
        fill: url(#linear-gradient);
      }
    </style>
    <linearGradient id="linear-gradient" x1="10.66" y1="26.23" x2="68.27" y2="83.84" gradientUnits="userSpaceOnUse">
      <stop offset="0" stop-color="#d946ef"/>
      <stop offset=".35" stop-color="#707de1"/>
      <stop offset=".69" stop-color="#06b6d4"/>
    </linearGradient>
    <linearGradient id="linear-gradient1" x1="18.49" y1="18.46" x2="63.6" y2="63.57" gradientUnits="userSpaceOnUse">
      <stop offset="0" stop-color="#d946ef"/>
      <stop offset="1" stop-color="#06b6d4"/>
    </linearGradient>
  </defs>
  <path class="st1" d="M42.01,31.14c-3.49-.35-6.67,1.15-8.66,3.64-1.91,2.4-4.91,3.68-7.99,3.67h.09c-3.08,0-6.08-1.27-7.99-3.67-1.85-2.31-4.72-3.77-7.93-3.68C4.45,31.24.21,35.43,0,40.51c-.22,5.6,4.27,10.21,9.81,10.21,1.18,0,2.31-.2,3.35-.59,1.36-.49,2.58-1.28,3.59-2.29.17-.17.34-.35.5-.54,1.55-1.8,3.56-3.11,5.82-3.65,0,0,.02,0,.02,0,.75-.19,1.53-.28,2.32-.28h.01c1.36,0,2.68.27,3.89.79h0c4.06,1.27,7.26,4.49,8.49,8.56.49,1.18.75,2.45.75,3.78v.1c0,.8-.09,1.58-.25,2.35-.48,2.2-1.64,4.22-3.42,5.65-1.4,1.12-2.49,2.62-3.11,4.34-.49,1.33-.68,2.79-.53,4.31.46,4.6,4.24,8.34,8.85,8.76,3.06.28,5.88-.86,7.85-2.83,1.78-1.78,2.87-4.23,2.87-6.93,0-3.04-1.39-5.77-3.57-7.56-2.32-1.91-3.79-4.66-3.79-7.67v-.51c0-3.17,1.53-6.08,3.94-8.15.18-.16.37-.34.54-.51,1.97-1.97,3.12-4.78,2.83-7.85-.42-4.6-4.16-8.38-8.77-8.85ZM4.91,40.91c0-1.35.56-2.58,1.45-3.47s2.11-1.44,3.46-1.44c2.71,0,4.91,2.2,4.91,4.91,0,2.71-2.2,4.91-4.91,4.91-2.71,0-4.91-2.2-4.91-4.91ZM45.91,72.24c0,2.71-2.2,4.91-4.91,4.91-2.71,0-4.9-2.2-4.9-4.9,0-1.35.55-2.58,1.44-3.48s2.12-1.43,3.47-1.43c2.71,0,4.9,2.2,4.9,4.9ZM45.91,40.91c0,2.71-2.2,4.9-4.9,4.9-1.35,0-2.58-.56-3.46-1.44s-1.45-2.12-1.45-3.47c0-2.71,2.2-4.9,4.9-4.9,2.71,0,4.91,2.2,4.91,4.91Z"/>
  <path class="st0" d="M79.89,34.82c-2.22-2.71-5.53-3.9-8.69-3.55-3.05.34-6.08-.87-8.24-3.05l-9.11-9.1c-2.18-2.18-3.39-5.2-3.05-8.25.33-2.94-.67-6-3-8.21-3.7-3.49-9.66-3.53-13.4-.08-4.11,3.8-4.2,10.24-.29,14.16.83.83,1.77,1.49,2.79,1.95,1.31.61,2.73.92,4.15.92.25,0,.49,0,.74-.03,2.37-.18,4.72.32,6.7,1.53,0,0,.02,0,.02,0,.66.4,1.28.88,1.84,1.45l9.18,9.18c.97.97,1.7,2.09,2.19,3.31h0c1.98,3.77,1.96,8.31-.05,12.06-.49,1.18-1.2,2.27-2.14,3.2l-9.14,9.14c-.56.56-1.18,1.05-1.84,1.48-1.9,1.22-4.14,1.82-6.41,1.58-1.78-.2-3.61.09-5.27.87-1.28.6-2.45,1.49-3.43,2.67-2.93,3.58-2.9,8.9.07,12.45,1.96,2.36,4.76,3.55,7.56,3.55,2.51,0,5.02-.96,6.93-2.87,2.15-2.15,3.09-5.06,2.82-7.88-.29-2.99.61-5.98,2.74-8.1l9.44-9.43c2.24-2.25,5.38-3.22,8.55-2.98.25.02.5.02.74.02,2.79,0,5.59-1.18,7.56-3.55,2.96-3.55,2.98-8.86.06-12.45ZM37.57,6.32c.96-.96,2.22-1.43,3.48-1.43s2.51.47,3.47,1.43c1.91,1.91,1.91,5.03,0,6.94-1.91,1.91-5.03,1.91-6.94,0-1.91-1.91-1.91-5.03,0-6.94ZM44.52,75.71c-1.91,1.91-5.03,1.91-6.94,0-1.91-1.91-1.91-5.02,0-6.93.96-.96,2.22-1.44,3.48-1.44s2.51.48,3.47,1.44c1.91,1.91,1.91,5.02,0,6.93ZM75.74,44.48c-1.91,1.91-5.02,1.91-6.93,0-.96-.96-1.43-2.22-1.43-3.47s.47-2.52,1.43-3.48c1.91-1.91,5.02-1.91,6.93,0,1.91,1.91,1.91,5.03,0,6.94Z"/>
</svg>