<?xml version="1.0" encoding="UTF-8"?>
<svg id="Layer_1" xmlns="http://www.w3.org/2000/svg" version="1.1" viewBox="0 0 79.71 81.1">
  <!-- Generator: Adobe Illustrator 29.5.0, SVG Export Plug-In . SVG Version: 2.1.0 Build 137)  -->
  <defs>
    <style>
      .st0 {
        fill: #ef4136;
      }
    </style>
  </defs>
  <path class="st0" d="M45.64,58.64l16.04,18.45c-4.78,2.56-10.24,4.01-16.04,4.01v-22.46Z"/>
  <path class="st0" d="M79.71,46.91c0,8.66-3.23,16.56-8.55,22.57-.9,1.02-1.85,1.98-2.87,2.88l-22.65-26.05V12.85c18.81,0,34.07,15.25,34.07,34.06Z"/>
  <polygon class="st0" points="25.51 81.1 0 47.03 0 0 25.51 29.35 25.51 81.1"/>
  <path class="st0" d="M45.64,58.64l16.04,18.45c-4.78,2.56-10.24,4.01-16.04,4.01v-22.46Z"/>
  <path class="st0" d="M61.68,77.09c-4.78,2.56-10.24,4.01-16.04,4.01v-22.46l16.04,18.45Z"/>
  <path class="st0" d="M61.68,77.09c-4.78,2.56-10.24,4.01-16.04,4.01v-22.46l16.04,18.45Z"/>
  <polygon class="st0" points="0 0 25.51 0 45.64 12.85 25.51 19.21 0 0"/>
</svg>