<svg xmlns="http://www.w3.org/2000/svg" version="1.1" xmlns:xlink="http://www.w3.org/1999/xlink" id="Layer_1" viewBox="0 0 581.6 581.6" width="581.6" height="581.6"><metadata><rdf:RDF xmlns:rdf="http://www.w3.org/1999/02/22-rdf-syntax-ns#" xmlns:dc="http://purl.org/dc/elements/1.1/"><rdf:Description><dc:creator>RealFaviconGenerator</dc:creator><dc:source>https://realfavicongenerator.net</dc:source></rdf:Description></rdf:RDF></metadata><defs>
    <style>
      .st0 {
        fill: url(#New_Gradient_Swatch_11);
      }

      .st1 {
        stroke-width: 1.2px;
      }

      .st1, .st2 {
        fill: none;
        stroke: #000;
        stroke-miterlimit: 10;
      }

      .st3 {
        fill: url(#New_Gradient_Swatch_1);
      }

      .st2 {
        stroke-width: 30px;
      }
    </style>
    <linearGradient id="New_Gradient_Swatch_1" data-name="New Gradient Swatch 1" x1="75.51" y1="188.75" x2="392.88" y2="506.12" gradientUnits="userSpaceOnUse">
      <stop offset="0" stop-color="#d946ef"></stop>
      <stop offset="1" stop-color="#0ea5e9"></stop>
    </linearGradient>
    <linearGradient id="New_Gradient_Swatch_11" data-name="New Gradient Swatch 1" x1="132.08" y1="132.11" x2="449.49" y2="449.52" xlink:href="#New_Gradient_Swatch_1"></linearGradient>
  </defs><circle class="st2" cx="-1371.46" cy="157" r="49.34"></circle><circle class="st2" cx="-1145" cy="157" r="49.34"></circle><circle class="st2" cx="-1145" cy="-69.47" r="49.34"></circle><circle class="st2" cx="-1145" cy="383.46" r="49.34"></circle><circle class="st2" cx="-918.54" cy="157" r="49.34"></circle><rect class="st1" x="-1420.8" y="-118.8" width="551.6" height="551.6"></rect><line class="st2" x1="-1329.29" y1="157" x2="-1188.59" y2="157"></line><line class="st2" x1="-1145" y1="198.32" x2="-1145" y2="334.12"></line><line class="st2" x1="-951.01" y1="124.53" x2="-1110.45" y2="-34.92"></line><path class="st2" d="M-1145,383.46"></path><line class="st2" x1="-1110.11" y1="348.57" x2="-953.16" y2="191.61"></line><g>
    <path d="M-1111.08,928.57v-.96c0-24.86,10.33-48.64,28.61-65.5,13.82-12.76,22.06-31.48,20.56-52.05-2.3-31.59-27.78-57.07-59.37-59.37-20.56-1.5-39.28,6.74-52.04,20.56-16.87,18.27-40.64,28.61-65.5,28.61h-.96c-24.87,0-48.64-10.34-65.51-28.61-12.31-13.34-30.18-21.47-49.9-20.67-33.09,1.34-60.06,28.11-61.61,61.2-1.73,36.87,27.77,67.43,64.27,67.43,18.73,0,35.62-8.05,47.38-20.87,16.76-18.27,40.57-28.47,65.37-28.47h.96c25.08,0,48.74,10.8,65.93,29.06.89.94,1.81,1.86,2.75,2.75,18.26,17.2,29.06,40.85,29.06,65.93v.96c0,24.87-10.34,48.64-28.61,65.51-13.34,12.31-21.47,30.18-20.67,49.9,1.34,33.09,28.11,60.06,61.2,61.62,36.87,1.73,67.43-27.77,67.43-64.27,0-18.73-8.05-35.62-20.87-47.38-18.27-16.76-28.47-40.57-28.47-65.37ZM-1352.54,849.2c-18.93,0-34.34-15.4-34.34-34.34s15.4-34.34,34.34-34.34,34.34,15.4,34.34,34.34-15.4,34.34-34.34,34.34ZM-1160.42,814.86c0-18.93,15.4-34.34,34.34-34.34s34.34,15.4,34.34,34.34-15.4,34.34-34.34,34.34-34.34-15.4-34.34-34.34ZM-1126.08,1075.66c-18.93,0-34.34-15.4-34.34-34.34s15.4-34.34,34.34-34.34,34.34,15.4,34.34,34.34-15.4,34.34-34.34,34.34Z"></path>
    <path d="M-895.48,750.65c-1.4-.09-2.78-.13-4.16-.13-27.14,0-53.28-10.17-72.47-29.36l-60.28-60.28c-19.19-19.19-29.37-45.33-29.36-72.46,0-1.38-.04-2.77-.13-4.17-2.08-32.85-29.16-59.08-62.06-60.16-37.17-1.22-67.67,29.28-66.45,66.45,1.08,32.9,27.3,59.98,60.15,62.06,1.4.09,2.79.13,4.17.13,27.14,0,53.28,10.17,72.46,29.36l60.54,60.54c19.03,19.03,29.25,44.95,29.1,71.86,0,.12,0,.25,0,.37s0,.25,0,.37c.15,26.91-10.07,52.83-29.1,71.85l-60.54,60.54c-19.19,19.19-45.33,29.37-72.47,29.36-1.38,0-2.76.04-4.16.13-32.85,2.07-59.08,29.15-60.16,62.05-1.22,37.17,29.28,67.68,66.46,66.46,32.9-1.08,59.98-27.31,62.05-60.16.09-1.4.13-2.78.13-4.16,0-27.14,10.17-53.28,29.36-72.47l60.54-60.54c19.03-19.03,44.95-29.25,71.86-29.1.12,0,.25,0,.37,0,36.5,0,66-30.55,64.27-67.43-1.53-32.53-27.62-59.07-60.12-61.12ZM-1160.42,588.4c0-18.93,15.4-34.34,34.34-34.34s34.34,15.4,34.34,34.34-15.4,34.34-34.34,34.34-34.34-15.4-34.34-34.34ZM-1126.08,1075.66c-18.93,0-34.34-15.4-34.34-34.34s15.4-34.34,34.34-34.34,34.34,15.4,34.34,34.34-15.4,34.34-34.34,34.34ZM-899.62,849.2c-18.93,0-34.34-15.4-34.34-34.34s15.4-34.34,34.34-34.34,34.34,15.4,34.34,34.34-15.4,34.34-34.34,34.34Z"></path>
  </g><g>
    <path class="st3" d="M305.8,404.51v-.96c0-24.86,10.33-48.64,28.61-65.5,13.82-12.76,22.06-31.48,20.56-52.05-2.3-31.59-27.78-57.07-59.37-59.37-20.56-1.5-39.28,6.74-52.04,20.56-16.87,18.27-40.64,28.61-65.5,28.61h-.96c-24.87,0-48.64-10.34-65.51-28.61-12.31-13.34-30.18-21.47-49.9-20.67C28.59,227.85,1.63,254.63.07,287.71c-1.73,36.87,27.77,67.43,64.27,67.43,18.73,0,35.62-8.05,47.38-20.87,16.76-18.27,40.57-28.47,65.37-28.47h.96c25.08,0,48.74,10.8,65.93,29.06.89.94,1.81,1.86,2.75,2.75,18.26,17.2,29.06,40.85,29.06,65.93v.96c0,24.87-10.34,48.64-28.61,65.51-13.34,12.31-21.47,30.18-20.67,49.9,1.34,33.09,28.11,60.06,61.2,61.62,36.87,1.73,67.43-27.77,67.43-64.27,0-18.73-8.05-35.62-20.87-47.38-18.27-16.76-28.47-40.57-28.47-65.37ZM64.34,325.14c-18.93,0-34.34-15.4-34.34-34.34s15.4-34.34,34.34-34.34,34.34,15.4,34.34,34.34-15.4,34.34-34.34,34.34ZM256.46,290.8c0-18.93,15.4-34.34,34.34-34.34s34.34,15.4,34.34,34.34-15.4,34.34-34.34,34.34-34.34-15.4-34.34-34.34ZM290.8,551.6c-18.93,0-34.34-15.4-34.34-34.34s15.4-34.34,34.34-34.34,34.34,15.4,34.34,34.34-15.4,34.34-34.34,34.34Z"></path>
    <path class="st0" d="M521.41,226.59c-1.4-.09-2.78-.13-4.16-.13-27.14,0-53.28-10.17-72.47-29.36l-60.28-60.28c-19.19-19.19-29.37-45.33-29.36-72.46,0-1.38-.04-2.77-.13-4.17C352.93,27.34,325.85,1.11,292.95.04c-37.17-1.22-67.67,29.28-66.45,66.45,1.08,32.9,27.3,59.98,60.15,62.06,1.4.09,2.79.13,4.17.13,27.14,0,53.28,10.17,72.46,29.36l60.54,60.54c19.03,19.03,29.25,44.95,29.1,71.86,0,.12,0,.25,0,.37s0,.25,0,.37c.15,26.91-10.07,52.83-29.1,71.85l-60.54,60.54c-19.19,19.19-45.33,29.37-72.47,29.36-1.38,0-2.76.04-4.16.13-32.85,2.07-59.08,29.15-60.16,62.05-1.22,37.17,29.28,67.68,66.46,66.46,32.9-1.08,59.98-27.31,62.05-60.16.09-1.4.13-2.78.13-4.16,0-27.14,10.17-53.28,29.36-72.47l60.54-60.54c19.03-19.03,44.95-29.25,71.86-29.1.12,0,.25,0,.37,0,36.5,0,66-30.55,64.27-67.43-1.53-32.53-27.62-59.07-60.12-61.12ZM256.46,64.34c0-18.93,15.4-34.34,34.34-34.34s34.34,15.4,34.34,34.34-15.4,34.34-34.34,34.34-34.34-15.4-34.34-34.34ZM290.8,551.6c-18.93,0-34.34-15.4-34.34-34.34s15.4-34.34,34.34-34.34,34.34,15.4,34.34,34.34-15.4,34.34-34.34,34.34ZM517.26,325.14c-18.93,0-34.34-15.4-34.34-34.34s15.4-34.34,34.34-34.34,34.34,15.4,34.34,34.34-15.4,34.34-34.34,34.34Z"></path>
  </g></svg>