<?xml version="1.0" encoding="UTF-8"?>
<svg id="Layer_1" xmlns="http://www.w3.org/2000/svg" version="1.1" xmlns:xlink="http://www.w3.org/1999/xlink" viewBox="0 0 82.06 82.06">
  <!-- Generator: Adobe Illustrator 29.5.0, SVG Export Plug-In . SVG Version: 2.1.0 Build 137)  -->
  <defs>
    <style>
      .st0 {
        fill: #fff;
      }

      .st1 {
        fill: url(#linear-gradient);
      }
    </style>
    <linearGradient id="linear-gradient" x1="3.96" y1="3.96" x2="78.1" y2="78.1" gradientUnits="userSpaceOnUse">
      <stop offset="0" stop-color="#d946ef"/>
      <stop offset="1" stop-color="#06b6d4"/>
    </linearGradient>
  </defs>
  <rect class="st1" x="0" width="82.06" height="82.06" rx="13.53" ry="13.53"/>
  <g>
    <path class="st0" d="M41.78,33.51c-2.66-.26-5.08.88-6.59,2.77-1.46,1.83-3.74,2.8-6.08,2.8h.07c-2.34,0-4.63-.97-6.08-2.8-1.41-1.76-3.59-2.87-6.04-2.8-3.87.11-7.1,3.3-7.26,7.17-.17,4.26,3.25,7.78,7.47,7.78.9,0,1.76-.15,2.55-.45,1.03-.37,1.96-.98,2.73-1.74.13-.13.26-.27.38-.41,1.18-1.37,2.71-2.37,4.43-2.78,0,0,.01,0,.01,0,.57-.14,1.16-.21,1.77-.21h0c1.04,0,2.04.21,2.96.6h0c3.09.96,5.53,3.42,6.46,6.52.37.9.57,1.87.57,2.87v.08c0,.61-.07,1.2-.19,1.79-.37,1.68-1.25,3.21-2.6,4.3-1.07.85-1.9,1.99-2.36,3.31-.37,1.01-.52,2.12-.41,3.28.35,3.5,3.23,6.35,6.74,6.67,2.33.22,4.47-.65,5.98-2.16,1.35-1.35,2.19-3.22,2.19-5.28,0-2.32-1.06-4.39-2.72-5.76-1.77-1.45-2.89-3.55-2.89-5.84v-.39c0-2.42,1.17-4.63,3-6.2.14-.12.28-.26.41-.39,1.5-1.5,2.37-3.64,2.16-5.98-.32-3.5-3.17-6.38-6.67-6.74ZM13.53,40.95c0-1.03.42-1.96,1.1-2.64s1.61-1.1,2.64-1.1c2.06,0,3.74,1.68,3.74,3.74,0,2.06-1.68,3.74-3.74,3.74-2.06,0-3.74-1.68-3.74-3.74ZM44.75,64.8c0,2.06-1.68,3.74-3.74,3.74-2.06,0-3.73-1.67-3.73-3.73,0-1.03.42-1.97,1.1-2.65s1.61-1.09,2.64-1.09c2.06,0,3.73,1.67,3.73,3.73ZM44.75,40.95c0,2.06-1.67,3.73-3.73,3.73-1.03,0-1.96-.42-2.64-1.1s-1.1-1.61-1.1-2.64c0-2.06,1.68-3.73,3.73-3.73,2.06,0,3.74,1.68,3.74,3.74Z"/>
    <path class="st0" d="M70.61,36.31c-1.69-2.07-4.21-2.97-6.62-2.7-2.32.26-4.63-.67-6.28-2.32l-6.94-6.93c-1.66-1.66-2.58-3.96-2.32-6.28.25-2.24-.51-4.57-2.29-6.25-2.81-2.66-7.35-2.69-10.2-.06-3.13,2.9-3.2,7.8-.22,10.78.63.64,1.35,1.13,2.12,1.49,1,.47,2.08.7,3.16.7.19,0,.37,0,.56-.02,1.81-.14,3.59.24,5.1,1.16,0,0,.01,0,.01,0,.5.31.97.67,1.4,1.1l6.99,6.99c.73.73,1.3,1.59,1.67,2.52h0c1.51,2.87,1.49,6.33-.04,9.18-.37.9-.92,1.72-1.63,2.43l-6.96,6.96c-.43.43-.9.8-1.4,1.13-1.44.93-3.15,1.39-4.88,1.2-1.36-.15-2.75.07-4.01.67-.98.45-1.87,1.13-2.61,2.04-2.23,2.73-2.21,6.77.05,9.48,1.49,1.8,3.62,2.7,5.75,2.7,1.91,0,3.82-.73,5.28-2.19,1.64-1.64,2.35-3.85,2.15-6-.22-2.28.47-4.55,2.09-6.17l7.19-7.18c1.71-1.71,4.1-2.45,6.51-2.27.19.01.38.02.57.02,2.12,0,4.25-.9,5.75-2.7,2.25-2.7,2.27-6.75.04-9.48ZM38.4,14.61c.73-.73,1.69-1.09,2.65-1.09s1.91.36,2.64,1.09c1.46,1.46,1.46,3.83,0,5.29-1.46,1.46-3.83,1.46-5.29,0-1.46-1.46-1.46-3.83,0-5.29ZM43.69,67.44c-1.46,1.46-3.83,1.46-5.29,0-1.46-1.46-1.46-3.82,0-5.28.73-.73,1.69-1.1,2.65-1.1s1.91.37,2.64,1.1c1.46,1.46,1.46,3.82,0,5.28ZM67.46,43.67c-1.46,1.46-3.82,1.46-5.28,0-.73-.73-1.09-1.69-1.09-2.64s.36-1.92,1.09-2.65c1.46-1.46,3.82-1.45,5.28,0,1.46,1.46,1.46,3.83,0,5.29Z"/>
  </g>
</svg>